<?xml version="1.0" encoding="UTF-8" standalone="no"?>
<!-- Created with Inkscape (http://www.inkscape.org/) -->

<svg
   width="137.54874mm"
   height="119.23878mm"
   viewBox="0 0 137.54874 119.23878"
   version="1.1"
   id="svg5"
   xml:space="preserve"
   inkscape:version="1.2.2 (b0a84865, 2022-12-01)"
   sodipodi:docname="ApiSpark_LOGO.svg"
   inkscape:export-filename="apispark_logo_white.svg"
   inkscape:export-xdpi="27.699276"
   inkscape:export-ydpi="27.699276"
   xmlns:inkscape="http://www.inkscape.org/namespaces/inkscape"
   xmlns:sodipodi="http://sodipodi.sourceforge.net/DTD/sodipodi-0.dtd"
   xmlns="http://www.w3.org/2000/svg"
   xmlns:svg="http://www.w3.org/2000/svg"><sodipodi:namedview
     id="namedview7"
     pagecolor="#ffffff"
     bordercolor="#000000"
     borderopacity="0.25"
     inkscape:showpageshadow="2"
     inkscape:pageopacity="0.0"
     inkscape:pagecheckerboard="0"
     inkscape:deskcolor="#d1d1d1"
     inkscape:document-units="mm"
     showgrid="false"
     inkscape:zoom="0.30101768"
     inkscape:cx="-825.53291"
     inkscape:cy="167.76423"
     inkscape:window-width="1728"
     inkscape:window-height="991"
     inkscape:window-x="0"
     inkscape:window-y="38"
     inkscape:window-maximized="0"
     inkscape:current-layer="layer1" /><defs
     id="defs2" /><g
     inkscape:label="Ebene 1"
     inkscape:groupmode="layer"
     id="layer1"
     transform="translate(-30.846755,-53.39913)"><path
       style="display:inline;fill:#0ea5e9;fill-opacity:1;fill-rule:evenodd;stroke-width:0.176389"
       d="m 65.112244,172.41753 c -0.22539,-0.2784 -1.804972,-2.95698 -1.804972,-3.06079 0,-0.0424 -0.186085,-0.3732 -0.413521,-0.73508 -0.227436,-0.36187 -1.668327,-2.84076 -3.201978,-5.50864 -1.533654,-2.66789 -3.384508,-5.88257 -4.113012,-7.14375 -2.312483,-4.00336 -2.502044,-4.35062 -2.502044,-4.5835 0,-0.17919 4.493103,-2.56025 4.831228,-2.56025 0.04568,0 0.584679,-0.22867 1.197784,-0.50816 2.256852,-1.02879 4.872032,-2.01249 5.108743,-1.92165 0.209206,0.0803 0.836415,1.1196 3.696439,6.12525 0.252176,0.44136 1.23802,2.15185 2.190765,3.80108 0.952746,1.64924 1.857672,3.21639 2.010945,3.48257 l 0.278678,0.48395 27.293968,0.001 27.293963,0.001 0.44319,-0.70205 c 0.24375,-0.38601 0.44318,-0.73488 0.44318,-0.77514 0,-0.0403 0.6215,-1.13324 1.38109,-2.42885 0.75961,-1.29561 2.04342,-3.50659 2.85293,-4.91329 0.8095,-1.4067 1.99958,-3.47045 2.6446,-4.58611 0.64503,-1.11566 1.79234,-3.10004 2.54958,-4.40972 0.75724,-1.30969 1.9715,-3.41313 2.69836,-4.67431 1.65862,-2.87789 3.69816,-6.40194 4.90007,-8.46667 1.22084,-2.09724 3.54814,-6.14687 4.10547,-7.14375 0.24407,-0.43656 1.02639,-1.77372 1.73848,-2.97147 0.71208,-1.19776 1.2947,-2.20332 1.2947,-2.23459 0,-0.0313 0.47625,-0.86354 1.05833,-1.84949 1.11671,-1.89151 1.20305,-2.18002 0.81964,-2.73888 -0.13128,-0.19136 -0.45828,-0.7448 -0.72665,-1.22987 -0.26837,-0.48507 -1.00916,-1.78232 -1.6462,-2.88278 -0.90501,-1.56337 -1.11906,-2.06472 -0.97902,-2.29305 0.39722,-0.64763 7.76658,-6.297316 9.24892,-7.090643 0.49019,-0.262343 0.466,-0.291973 2.09415,2.565083 0.66342,1.16417 1.89728,3.30729 2.74192,4.7625 3.76666,6.48956 3.83189,6.6123 3.73002,7.0182 -0.0549,0.21869 -1.38245,2.61844 -2.95013,5.33277 -7.57868,13.12191 -8.76675,15.18322 -9.30013,16.13583 -0.24443,0.43657 -0.90768,1.57504 -1.47389,2.52996 -0.5662,0.95491 -1.02946,1.76046 -1.02946,1.79011 0,0.0297 -0.59531,1.05958 -1.32292,2.28873 -0.7276,1.22916 -1.32291,2.26169 -1.32291,2.29452 0,0.0328 -0.46326,0.84099 -1.02947,1.7959 -0.5662,0.95491 -1.22919,2.09339 -1.4733,2.52995 -0.24411,0.43656 -1.22499,2.14313 -2.17973,3.79236 -0.95474,1.64924 -2.26235,3.91143 -2.90578,5.02709 -0.64344,1.11566 -1.94945,3.37784 -2.90223,5.02708 -0.95278,1.64924 -1.93206,3.3558 -2.17617,3.79236 -0.24411,0.43656 -0.9071,1.57504 -1.4733,2.52995 -0.56621,0.95491 -1.02947,1.76569 -1.02947,1.80173 0,0.036 -0.36313,0.66366 -0.80696,1.3947 l -0.80696,1.32918 H 99.739964 c -27.346581,0 -34.486022,-0.0455 -34.62772,-0.22049 z m 33.373413,-17.83259 c -2.21309,-1.26573 -4.749085,-3.45508 -6.364862,-5.49484 -2.523774,-3.18602 -4.298993,-7.38419 -4.810864,-11.37708 -0.323612,-2.52436 -0.276532,-2.40792 -1.025472,-2.53619 -1.570468,-0.26897 -5.343446,-0.32682 -8.114579,-0.12442 -12.363774,0.90304 -23.535281,5.11687 -33.646354,12.69122 -0.775192,0.5807 -1.441104,1.02416 -1.479805,0.98546 -0.307811,-0.30781 6.29591,-7.3775 10.196531,-10.91601 13.237732,-12.00883 28.697724,-20.02015 43.580908,-22.58351 3.21067,-0.55297 7.28881,-0.97821 7.4864,-0.78061 0.0467,0.0467 -0.11258,0.79563 -0.35388,1.66438 -0.38978,1.40333 -1.40719,5.49299 -2.10431,8.4587 -0.951,4.04577 -1.77959,8.93081 -2.408433,14.19931 -0.493991,4.13867 -0.54559,11.63021 -0.09659,14.02292 0.462521,2.46473 0.431815,2.52876 -0.858695,1.79067 z m 10.352763,-4.03963 c -1.20245,-3.69535 -1.49836,-6.29914 -1.38239,-12.1637 0.0524,-2.64755 0.18284,-5.40905 0.28995,-6.13665 0.10712,-0.7276 0.31773,-2.15635 0.46801,-3.175 0.68481,-4.64157 2.06779,-10.68728 3.62481,-15.84582 0.39046,-1.29364 0.68357,-2.37096 0.65135,-2.39405 -0.14283,-0.10236 -1.73214,-0.62866 -2.61621,-0.86635 -2.24971,-0.60485 -5.27901,-1.09877 -8.85054,-1.44305 -1.820061,-0.17545 -11.964773,-0.11953 -14.432795,0.0796 -6.832122,0.55113 -14.054037,1.45634 -18.432639,2.3104 -0.485069,0.0946 -1.979986,0.37451 -3.322037,0.622 -1.342054,0.24749 -2.552522,0.49312 -2.689931,0.54585 -0.13741,0.0527 -0.249837,0.0167 -0.249837,-0.0801 0,-0.33335 4.498213,-3.21118 8.202083,-5.24746 1.385965,-0.76197 6.726017,-3.43375 6.862986,-3.43375 0.04869,0 0.588192,-0.23388 1.198885,-0.51973 2.703418,-1.26541 6.140313,-2.5901 11.693684,-4.507133 0.83336,-0.287678 5.503598,-1.669175 7.14375,-2.113183 0.63059,-0.170709 1.503715,-0.411145 1.940277,-0.534302 0.436563,-0.123158 1.349374,-0.355674 2.028474,-0.516703 0.6791,-0.16103 1.51253,-0.364288 1.85208,-0.451687 1.75049,-0.45057 8.84828,-1.852975 11.99445,-2.369902 8.04563,-1.321928 15.13021,-2.076081 24.42986,-2.600557 4.62298,-0.260724 18.76004,-0.288523 19.19485,-0.03774 0.2734,0.157683 0.0763,0.306687 -1.32292,1.000368 -9.0015,4.462465 -17.52073,12.200179 -26.30775,23.894399 -4.70392,6.26022 -9.51693,13.86923 -13.91936,22.00548 -1.24279,2.29682 -5.61842,11.22016 -6.31404,12.87639 -0.65088,1.54967 -1.01775,2.20486 -1.2346,2.20486 -0.078,0 -0.30315,-0.4961 -0.50045,-1.10243 z M 43.695594,135.28767 c -0.144967,-0.16978 -0.461305,-0.66587 -0.702975,-1.10243 -0.241669,-0.43656 -1.036504,-1.82563 -1.7663,-3.08681 -0.729797,-1.26118 -2.104895,-3.64243 -3.055774,-5.29166 -0.950878,-1.64924 -2.323865,-4.03049 -3.051083,-5.29167 -0.727216,-1.26118 -1.986073,-3.45169 -2.79746,-4.8678 l -1.475248,-2.57474 0.944091,-1.65859 c 0.961547,-1.68926 4.309156,-7.49895 5.88511,-10.21345 1.178036,-2.029116 4.056716,-7.005292 5.612181,-9.701392 0.699628,-1.212674 1.730957,-2.998611 2.291841,-3.96875 2.121749,-3.669907 3.620758,-6.269004 5.290014,-9.172222 0.948256,-1.649237 1.782383,-3.077987 1.853615,-3.175 0.07123,-0.09701 0.326871,-0.533577 0.568086,-0.970139 0.241214,-0.436563 1.218123,-2.143125 2.170907,-3.792361 0.952784,-1.649236 2.258784,-3.911424 2.902225,-5.027084 0.643438,-1.115659 1.952037,-3.377847 2.907994,-5.027083 0.955959,-1.649236 2.212146,-3.832048 2.791529,-4.850694 0.579383,-1.018646 1.142155,-1.9104 1.250604,-1.981675 0.10845,-0.07127 15.61465,-0.130806 34.45822,-0.132291 l 34.261039,-0.0027 0.43017,0.661458 c 0.2366,0.363802 1.29632,2.169584 2.35495,4.012848 2.27994,3.969799 3.8658,6.716626 6.5685,11.377083 1.09707,1.891771 2.56657,4.431771 3.26554,5.644444 0.69898,1.212674 1.82974,3.171912 2.5128,4.353863 0.68307,1.181951 1.19696,2.193982 1.14198,2.248959 -0.055,0.05497 -1.80296,0.09996 -3.88441,0.09996 -2.08145,0 -5.13891,0.09015 -6.79436,0.200339 l -3.0099,0.200341 -0.40731,-0.509022 c -0.22402,-0.279961 -0.40771,-0.563111 -0.40819,-0.629221 -5.3e-4,-0.06611 -0.59619,-1.125875 -1.32379,-2.355028 -0.72761,-1.229152 -1.32292,-2.26 -1.32292,-2.290772 0,-0.03077 -0.48447,-0.876008 -1.07659,-1.878307 -0.59213,-1.002296 -1.25553,-2.139858 -1.47423,-2.527913 -2.21751,-3.934684 -3.35999,-5.856877 -3.59075,-6.04132 -0.40473,-0.323495 -54.407612,-0.323495 -54.675802,0 -0.100536,0.121268 -0.455043,0.696736 -0.787792,1.27882 -0.33275,0.582083 -1.381872,2.407708 -2.331386,4.056944 -1.61903,2.81214 -2.253987,3.91203 -5.676902,9.833681 -0.743024,1.285434 -2.260314,3.924652 -3.371753,5.86493 -1.909247,3.333036 -2.490674,4.338747 -4.843808,8.378472 -0.53685,0.921632 -1.885629,3.263195 -2.997286,5.203472 -3.239842,5.65478 -5.452053,9.47509 -5.896601,10.18296 -0.227265,0.36186 -0.413209,0.70078 -0.413209,0.75315 0,0.0524 -0.200005,0.41203 -0.444459,0.79928 -0.505328,0.80048 -0.517357,0.75632 0.786703,2.88846 0.361534,0.59113 0.900864,1.51132 1.19851,2.0449 0.297645,0.53357 1.231986,2.16076 2.076314,3.61598 2.95577,5.09431 3.791265,6.60096 3.791265,6.83682 0,0.13077 -0.570669,0.67004 -1.268153,1.19838 -1.58137,1.19788 -4.235795,3.34827 -5.170041,4.18831 -0.388055,0.34893 -1.166486,1.0553 -1.729846,1.56969 -0.563359,0.51439 -1.086839,0.93527 -1.163286,0.93527 -0.07645,0 -0.257607,-0.13892 -0.402574,-0.30869 z"
       id="path443"
       inkscape:label="Logo_blue"
       inkscape:export-filename="path443.svg"
       inkscape:export-xdpi="96"
       inkscape:export-ydpi="96"
       sodipodi:insensitive="true" /></g></svg>
